<?xml version="1.0" encoding="UTF-8" standalone="no"?>
<!-- Generator: Adobe Illustrator 12.0.0, SVG Export Plug-In . SVG Version: 6.00 Build 51448)  -->

<svg
   xmlns:dc="http://purl.org/dc/elements/1.1/"
   xmlns:cc="http://creativecommons.org/ns#"
   xmlns:rdf="http://www.w3.org/1999/02/22-rdf-syntax-ns#"
   xmlns:svg="http://www.w3.org/2000/svg"
   xmlns="http://www.w3.org/2000/svg"
   xmlns:sodipodi="http://sodipodi.sourceforge.net/DTD/sodipodi-0.dtd"
   xmlns:inkscape="http://www.inkscape.org/namespaces/inkscape"
   version="1.1"
   id="Layer_1"
   width="600"
   height="600"
   viewBox="0 0 600 600"
   overflow="visible"
   enable-background="new 0 0 600 600"
   xml:space="preserve"
   inkscape:version="0.48.2 r9819"
   sodipodi:docname="US_blank.svg"><metadata
   id="metadata19"><rdf:RDF><cc:Work
       rdf:about=""><dc:format>image/svg+xml</dc:format><dc:type
         rdf:resource="http://purl.org/dc/dcmitype/StillImage" /><dc:title></dc:title></cc:Work></rdf:RDF></metadata><defs
   id="defs17" /><sodipodi:namedview
   pagecolor="#ffffff"
   bordercolor="#666666"
   borderopacity="1"
   objecttolerance="10"
   gridtolerance="10"
   guidetolerance="10"
   inkscape:pageopacity="0"
   inkscape:pageshadow="2"
   inkscape:window-width="1920"
   inkscape:window-height="1000"
   id="namedview15"
   showgrid="false"
   inkscape:zoom="0.39333333"
   inkscape:cx="-185.59322"
   inkscape:cy="300"
   inkscape:window-x="0"
   inkscape:window-y="25"
   inkscape:window-maximized="1"
   inkscape:current-layer="Layer_1" />

<g
   id="g9"
   style="stroke-width:10;stroke-miterlimit:4;stroke-dasharray:none">
	<path
   fill-rule="evenodd"
   clip-rule="evenodd"
   fill="#FFFFFF"
   d="M300,10.0024414   c23.5644531,20.0751953,54.1171875,32.1914063,87.5,32.1914063S451.4355469,30.0751953,475,10l115,115   c-21.1621094,30.0805664-33.5878906,66.753418-33.5878906,106.3271484c0,28.4628906,6.4267578,55.4238281,17.9101563,79.5117188   C584.2441406,331.6640625,590,355.3945313,590,380c0,88.3671875-71.6328125,160-160,160h-25.1132813   C362.5419922,540,324.7509766,559.4951172,300,590c-24.7514648-30.5048828-62.5419922-50-104.8867188-50h-25.1137695   c-88.3666992,0-160-71.6328125-160-160c0-24.6054688,5.7563477-48.3359375,15.6787109-69.1611328   c11.4824219-24.0878906,17.9101563-51.0488281,17.9101563-79.5117188C43.5883789,191.753418,31.1616211,155.0805664,10,125L125,10   c23.5644531,20.0751953,54.1166992,32.1938477,87.5,32.1938477C245.8828125,42.1938477,276.4355469,30.0776367,300,10.0024414z"
   id="path11"
   style="stroke-width:10;stroke-miterlimit:4;stroke-dasharray:none" />
	
		<path
   fill-rule="evenodd"
   clip-rule="evenodd"
   fill="none"
   stroke="#000000"
   stroke-linecap="round"
   stroke-linejoin="round"
   stroke-miterlimit="3.863693"
   d="   M300,10.0024414c23.5644531,20.0751953,54.1171875,32.1914063,87.5,32.1914063S451.4355469,30.0751953,475,10l115,115   c-21.1621094,30.0805664-33.5878906,66.753418-33.5878906,106.3271484c0,28.4628906,6.4267578,55.4238281,17.9101563,79.5117188   C584.2441406,331.6640625,590,355.3945313,590,380c0,88.3671875-71.6328125,160-160,160h-25.1132813   C362.5419922,540,324.7509766,559.4951172,300,590c-24.7514648-30.5048828-62.5419922-50-104.8867188-50h-25.1137695   c-88.3666992,0-160-71.6328125-160-160c0-24.6054688,5.7563477-48.3359375,15.6787109-69.1611328   c11.4824219-24.0878906,17.9101563-51.0488281,17.9101563-79.5117188C43.5883789,191.753418,31.1616211,155.0805664,10,125L125,10   c23.5644531,20.0751953,54.1166992,32.1938477,87.5,32.1938477C245.8828125,42.1938477,276.4355469,30.0776367,300,10.0024414z"
   id="path13"
   style="stroke-width:10;stroke-miterlimit:4;stroke-dasharray:none" />
</g>
</svg>