<?xml version="1.0" encoding="UTF-8" standalone="no"?>
<!-- Generator: Adobe Illustrator 12.0.0, SVG Export Plug-In . SVG Version: 6.00 Build 51448)  -->

<svg
   xmlns:dc="http://purl.org/dc/elements/1.1/"
   xmlns:cc="http://creativecommons.org/ns#"
   xmlns:rdf="http://www.w3.org/1999/02/22-rdf-syntax-ns#"
   xmlns:svg="http://www.w3.org/2000/svg"
   xmlns="http://www.w3.org/2000/svg"
   xmlns:sodipodi="http://sodipodi.sourceforge.net/DTD/sodipodi-0.dtd"
   xmlns:inkscape="http://www.inkscape.org/namespaces/inkscape"
   version="1.1"
   id="Layer_1"
   width="750"
   height="600"
   viewBox="0 0 750 600"
   overflow="visible"
   enable-background="new 0 0 750 600"
   xml:space="preserve"
   inkscape:version="0.48.2 r9819"
   sodipodi:docname="US_blank_wide.svg"><metadata
   id="metadata17"><rdf:RDF><cc:Work
       rdf:about=""><dc:format>image/svg+xml</dc:format><dc:type
         rdf:resource="http://purl.org/dc/dcmitype/StillImage" /><dc:title></dc:title></cc:Work></rdf:RDF></metadata><defs
   id="defs15" /><sodipodi:namedview
   pagecolor="#ffffff"
   bordercolor="#666666"
   borderopacity="1"
   objecttolerance="10"
   gridtolerance="10"
   guidetolerance="10"
   inkscape:pageopacity="0"
   inkscape:pageshadow="2"
   inkscape:window-width="1920"
   inkscape:window-height="1000"
   id="namedview13"
   showgrid="false"
   inkscape:zoom="0.39333333"
   inkscape:cx="-110.59322"
   inkscape:cy="300"
   inkscape:window-x="0"
   inkscape:window-y="25"
   inkscape:window-maximized="1"
   inkscape:current-layer="Layer_1" />
<g
   id="g3">
	<g
   id="g5">
		<path
   d="M0,50C0,22.3857422,22.3852539,0,50,0h650c27.6142578,0,50,22.3857422,50,50v500c0,27.6152344-22.3857422,50-50,50H50    c-27.6147461,0-50-22.3847656-50-50V50L0,50z"
   id="path7"
   style="fill:none" />
		<path
   d="M375,300"
   id="path9" />
	</g>
	<path
   fill-rule="evenodd"
   clip-rule="evenodd"
   fill="#FFFFFF"
   d="M375,10.0019531   c-36.3276367,22.4638672-79.1499023,35.4287109-125.0004883,35.4287109C204.1494141,45.4306641,161.3271484,32.4638672,125,10   L10,125c21.1630859,30.0810547,33.5883789,66.7524414,33.5883789,106.3271484   c0,28.5605469-6.472168,55.6088867-18.0288086,79.7587891C15.5854492,331.9560547,9.9995117,355.3261719,9.9995117,380   c0,88.3671875,71.6333008,160,160,160h100.1157227C312.4584961,540,350.2485352,559.4941406,375,589.9980469   C399.7509766,559.4941406,437.5410156,540,479.8847656,540H580c88.3671875,0,160-71.6328125,160-160   c0-24.6738281-5.5839844-48.0439453-15.5605469-68.9140625c-11.5566406-24.1499023-18.0273438-51.1982422-18.0273438-79.7587891   C706.4121094,191.7524414,718.8369141,155.0810547,740,125L625,10c-36.328125,22.4638672-79.1503906,35.4306641-125,35.4306641   C454.1494141,45.4306641,411.3271484,32.4658203,375,10.0019531z"
   id="path11"
   style="stroke-width:10;stroke-miterlimit:4;stroke-dasharray:none;fill:#ffffff;fill-opacity:1;stroke:#000000;stroke-opacity:1" />
</g>
</svg>